<svg viewBox="0 0 602 602" fill="none" xmlns="http://www.w3.org/2000/svg">
    <g opacity="0.15">
        <path fill-rule="evenodd" clip-rule="evenodd" d="M201.337 87.437C193.474 79.5738 180.725 79.5738 172.862 87.437L87.437 172.862C79.5739 180.725 79.5739 193.474 87.437 201.337L400.663 514.563C408.526 522.426 421.275 522.426 429.138 514.563L514.563 429.138C522.426 421.275 522.426 408.526 514.563 400.663L201.337 87.437Z" stroke="#000"/>
        <path d="M514.563 201.337C522.426 193.474 522.426 180.725 514.563 172.862L429.138 87.437C421.275 79.5738 408.526 79.5739 400.663 87.437L358.098 130.002L301.148 73.0516L343.713 30.4869C383.028 -8.82896 446.772 -8.82896 486.088 30.4869L571.513 115.912C610.829 155.228 610.829 218.972 571.513 258.287L357.802 471.999L300.852 415.049L514.563 201.337Z" stroke="#000"/>
    </g>
</svg>
